<svg xmlns="http://www.w3.org/2000/svg" enable-background="new 0 0 32 32" viewBox="0 0 32 32" id="warning"><path d="M16,0.5C7.45313,0.5,0.5,7.45313,0.5,16S7.45313,31.5,16,31.5S31.5,24.54688,31.5,16S24.54688,0.5,16,0.5z M16,28.5C9.10742,28.5,3.5,22.89258,3.5,16S9.10742,3.5,16,3.5S28.5,9.10742,28.5,16S22.89258,28.5,16,28.5z"></path><path d="M16 7c-.82861 0-1.5.67188-1.5 1.5v9.53613c0 .82813.67139 1.5 1.5 1.5s1.5-.67188 1.5-1.5V8.5C17.5 7.67188 16.82861 7 16 7zM16 20.91113c-.82861 0-1.5.67188-1.5 1.5V23.5c0 .82813.67139 1.5 1.5 1.5s1.5-.67188 1.5-1.5v-1.08887C17.5 21.58301 16.82861 20.91113 16 20.91113z"></path></svg>